<svg width="24" height="21" viewBox="0 0 24 21" fill="none" xmlns="http://www.w3.org/2000/svg">
    <path fill-rule="evenodd" clip-rule="evenodd" d="M5 21C5 17.134 8.13401 14 12 14C15.866 14 19 17.134 19 21H21C21 17.3261 18.7987 14.1664 15.643 12.7678C17.0759 11.6713 18 9.94359 18 8C18 4.68629 15.3137 2 12 2C8.68629 2 6 4.68629 6 8C6 9.94359 6.92413 11.6713 8.35697 12.7678C5.20134 14.1664 3 17.3261 3 21H5ZM16 8C16 10.2091 14.2091 12 12 12C9.79086 12 8 10.2091 8 8C8 5.79086 9.79086 4 12 4C14.2091 4 16 5.79086 16 8Z" fill="#B3CDFF"></path>
    <mask id="mask0_1163_13960" style="mask-type:luminance" maskUnits="userSpaceOnUse" x="3" y="2" width="18" height="19">
        <path fill-rule="evenodd" clip-rule="evenodd" d="M5 21C5 17.134 8.13401 14 12 14C15.866 14 19 17.134 19 21H21C21 17.3261 18.7987 14.1664 15.643 12.7678C17.0759 11.6713 18 9.94359 18 8C18 4.68629 15.3137 2 12 2C8.68629 2 6 4.68629 6 8C6 9.94359 6.92413 11.6713 8.35697 12.7678C5.20134 14.1664 3 17.3261 3 21H5ZM16 8C16 10.2091 14.2091 12 12 12C9.79086 12 8 10.2091 8 8C8 5.79086 9.79086 4 12 4C14.2091 4 16 5.79086 16 8Z" fill="white"></path>
    </mask>
    <g mask="url(#mask0_1163_13960)">
    </g>
</svg>